<?xml version="1.0" encoding="UTF-8" standalone="no"?>
<!-- Created with Inkscape (http://www.inkscape.org/) -->

<svg
   version="1.1"
   id="svg9"
   width="2560"
   height="1440"
   viewBox="0 0 2560 1440"
   sodipodi:docname="Eid-Mubarak-Source File.svg"
   inkscape:version="1.2.2 (732a01da63, 2022-12-09)"
   xmlns:inkscape="http://www.inkscape.org/namespaces/inkscape"
   xmlns:sodipodi="http://sodipodi.sourceforge.net/DTD/sodipodi-0.dtd"
   xmlns="http://www.w3.org/2000/svg"
   xmlns:svg="http://www.w3.org/2000/svg">
  <defs
     id="defs13">
    <clipPath
       clipPathUnits="userSpaceOnUse"
       id="clipPath25">
      <path
         d="M 0,1080 H 1920 V 0 H 0 Z"
         id="path23" />
    </clipPath>
    <clipPath
       clipPathUnits="userSpaceOnUse"
       id="clipPath33">
      <path
         d="M 310.696,888.661 H 1921 V 0 H 310.696 Z"
         id="path31" />
    </clipPath>
    <clipPath
       clipPathUnits="userSpaceOnUse"
       id="clipPath49">
      <path
         d="M 0.996002,412.097 H 1192.08 V 0 H 0.996002 Z"
         id="path47" />
    </clipPath>
    <clipPath
       clipPathUnits="userSpaceOnUse"
       id="clipPath95">
      <path
         d="M 0,1080 H 1920 V 0 H 0 Z"
         id="path93" />
    </clipPath>
  </defs>
  <sodipodi:namedview
     id="namedview11"
     pagecolor="#ffffff"
     bordercolor="#999999"
     borderopacity="1"
     inkscape:showpageshadow="0"
     inkscape:pageopacity="0"
     inkscape:pagecheckerboard="0"
     inkscape:deskcolor="#d1d1d1"
     showgrid="false"
     inkscape:zoom="0.35555556"
     inkscape:cx="994.21875"
     inkscape:cy="801.5625"
     inkscape:window-width="1366"
     inkscape:window-height="715"
     inkscape:window-x="-8"
     inkscape:window-y="-8"
     inkscape:window-maximized="1"
     inkscape:current-layer="g21">
    <inkscape:page
       x="0"
       y="0"
       id="page15"
       width="2560"
       height="1440" />
  </sodipodi:namedview>
  <g
     id="g17"
     inkscape:groupmode="layer"
     inkscape:label="Page 1"
     transform="matrix(1.3333333,0,0,-1.3333333,0,1440)">
    <g
       id="g21"
       clip-path="url(#clipPath25)"
       transform="translate(23.203126,-2.1093751)">
      <g
         id="g27">
        <g
           id="g29" />
        <g
           id="g41">
          <g
             clip-path="url(#clipPath33)"
             opacity="0.0399933"
             id="g39">
            <g
               transform="translate(1956.8555,10.944351)"
               id="g37">
              <path
                 d="m 0,0 v -869.46 h -1610.3 c 127.94,233.83 249.68,167.26 406.14,210.731 12.76,6.379 34.48,28.829 60.22,56.929 62.88,68.63 149.76,171 188.72,155.41 65.9,-21.97 76.88,-186.71 153.76,-153.76 12.47,7.12 24.06,15.69 35.03,25.32 12.869,11.3 24.86,24.08 36.36,37.72 1.83,2.16 3.64,4.35 5.44,6.56 15.66,19.15 30.49,39.77 45.48,60.27 6.7,9.16 13.44,18.29 20.29,27.26 13.95,18.26 28.41,35.84 44.12,51.541 38.85,35.619 77.71,71.239 116,107.429 2.37,2.23 4.73,4.47 7.09,6.71 53.379,50.62 105.58,102.41 155.089,156.89 33.111,36.43 65.011,74.07 95.241,113.38 10.98,10.98 108.28,-20.59 177.4,23.22 C -32.71,24 -13.17,16.02 0,0"
                 style="fill:#3c0735;fill-opacity:1;fill-rule:nonzero;stroke:none"
                 id="path35" />
            </g>
          </g>
        </g>
      </g>
      <g
         id="g43">
        <g
           id="g45" />
      </g>
      <g
         id="g324"
         transform="translate(-436.64064,40.078126)">
        <path
           d="m 1321.016,515.556 h 4.91 v -18.02 h -4.91 z m 263.42,259.68 c -17.1,17.73 -36.28,33.44 -57.14,46.74 -1.99,1.28 -4.03,2.56 -6.08,3.79 -5.48,3.32 -11.07,6.49 -16.77,9.48 1.17,-0.61 2.38,-3.56 3.04,-4.7 0.97,-1.69 1.85,-3.44 2.65,-5.21 3.79,-8.44 5.96,-17.77 6.44,-27 0.51,-9.92 -3.24,-21.68 -8.23,-30.19 -4.12,-7.02 -10.64,-12.39 -17.01,-17.31 -10.38,-8 -23.17,-17.8 -34.34,-27.96 -11.17,-10.16 -20.68,-20.7 -24.46,-30.2 -6.62,-12.2 -10.36,-25.93 -10.36,-40.43 0,-11.97 2.54,-23.41 7.17,-33.9 3.15,-7.17 7.27,-13.9 12.22,-20.06 h -8.93 v -32.7 h -21.28 v 25.88 h 4.62 v 9.15 h 6.28 v 11.35 h -7.01 v 7.11 h -4.31 c 0,6.36 -1.73,12.34 -4.76,17.61 -3.63,7.76 -15.78,17 -24.14,23.48 -8.66,6.68 -8.46,9.57 -10.42,16.89 -1.69,6.29 -2.88,23.93 -3.19,28.93 v 1.32 c 0,0 -0.02,-0.24 -0.04,-0.68 -0.04,0.44 -0.04,0.68 -0.04,0.68 v -1.32 c -0.31,-5 -1.53,-22.64 -3.21,-28.93 -1.96,-7.32 -1.76,-10.21 -10.4,-16.89 -8.63,-6.67 -21.36,-16.31 -24.51,-24.23 -2.76,-5.09 -4.3,-10.82 -4.3,-16.86 h -3.34 v -7.11 h -6.68 v -11.35 h 5.21 v -9.15 h 4.81 v -46.9 h -13.98 l 11.23,27.43 v 14.68 l -16.58,12.93 v 43.07 c 1.77,1.81 4.71,5.67 5.11,11.28 0.38,5.62 -2.04,12.43 -9.11,15.84 v 31.75 l -2,2.46 v 5.54 l -2.36,2.89 v 12.02 h -1.37 c 0.86,5.92 2.38,19.93 -0.45,29.69 -3.68,12.68 -5.75,26.36 -5.75,26.36 0,0 -2.03,-18.69 -4.21,-26.02 -2.08,-7.01 -2.56,-16.16 -0.33,-30.03 h -1.35 v -11.13 l -2.38,-2.43 v -6.89 l -1.9,-2.35 v -31.23 c -8.22,-2.55 -11.23,-8.1 -10.84,-15.36 0.3,-5.33 3.13,-8.86 5.65,-11 v -44.44 l -17.11,-10.61 v -15.01 l 10.65,-27.36 v -2.08 h -20.52 v -15.35 h 7.61 v -14 h 6.2 v -90.56 h -4.88 v -5.09 h -4.55 v 5.58 h -5.52 v -5.58 h -4.94 v 5.58 h -0.4 v 43.69 h 3.12 v 7.25 h 3.76 v 8.14 h -10.36 v 35.37 l 6.56,14.85 v 7.79 l -9.47,6.85 v 22.85 c 0.99,0.95 2.7,2.98 2.91,5.97 0.22,2.96 -1.17,6.59 -5.21,8.4 v 16.83 l -1.15,1.29 v 2.95 l -1.34,1.54 v 6.36 h -0.8 c 0.5,3.12 1.37,10.55 -0.25,15.74 -2.1,6.72 -3.27,13.96 -3.27,13.96 0,0 -1.17,-9.89 -2.42,-13.78 -1.18,-3.72 -1.44,-8.57 -0.17,-15.92 h -0.79 v -5.91 l -1.35,-1.28 v -3.66 l -1.09,-1.23 v -16.56 c -4.72,-1.34 -6.43,-4.3 -6.2,-8.14 0.16,-2.83 1.78,-4.7 3.23,-5.82 v -23.57 l -9.78,-5.64 v -7.95 l 6.07,-14.51 v -36.78 h -10.53 v -8.14 h 4.04 v -7.42 h 3.26 v -49.1 h -0.91 v 5.58 h -13.34 v -67.38 c -1.82,0.25 -3.63,0.52 -5.44,0.81 -34.32,5.39 -66.77,16.36 -96.44,31.91 16.54,-26.07 36.81,-49.54 60.08,-69.63 5.83,-5.05 11.85,-9.87 18.05,-14.48 7.66,-5.69 15.58,-11.03 23.75,-16.02 10.75,-6.55 21.92,-12.49 33.49,-17.73 39.41,-17.92 83.2,-27.88 129.32,-27.88 30.28,0 59.56,4.3 87.26,12.32 14.49,4.2 28.55,9.41 42.09,15.56 4.15,1.89 8.25,3.86 12.3,5.92 19.73,10.02 38.23,22.07 55.25,35.87 63.53,51.45 106.53,127.28 114.74,213.28 0.96,9.91 1.44,19.96 1.44,30.12 0,84.45 -33.44,161.1 -87.82,217.42"
           style="fill:#bc0793;fill-opacity:1;fill-rule:nonzero;stroke:none"
           id="path59" />
        <g
           id="g61"
           transform="translate(1266.5928,317.5674)">
          <path
             d="m 0,0 c 35.577,13.21 71.457,20.758 107.346,13.58 12.317,0 9.242,-36.958 24.642,-46.2 15.855,-9.907 31.811,-19.157 47.852,-27.877 14.49,4.195 28.551,9.41 42.089,15.56 4.153,1.887 8.256,3.859 12.308,5.915 19.722,10.016 38.222,22.072 55.248,35.872 63.53,51.448 106.529,127.278 114.735,213.276 -18.037,-6.049 -38.602,0.135 -41.247,-2.52 C 332.173,167.573 295.214,133.689 258.256,99.814 239.78,81.331 227.455,53.614 205.896,41.297 184.338,32.056 181.264,78.256 162.78,84.414 151.854,88.786 127.498,60.084 109.874,40.834 102.646,32.957 96.555,26.655 92.974,24.869 45.889,11.794 36.984,30.851 0,0"
             style="fill:#b4078d;fill-opacity:1;fill-rule:nonzero;stroke:none"
             id="path63" />
        </g>
        <g
           id="g65"
           transform="translate(1172.6172,306.3799)">
          <path
             d="m 0,0 c 7.657,-5.695 15.577,-11.036 23.749,-16.023 10.749,-6.555 21.92,-12.495 33.487,-17.726 39.41,-17.928 83.201,-27.886 129.326,-27.886 30.278,0 59.553,4.306 87.253,12.325 14.491,4.196 28.551,9.411 42.089,15.561 4.154,1.887 8.256,3.858 12.309,5.914 C 297.042,-9.158 265.812,10.228 234.178,30 228.643,33.318 217.025,42.114 203.85,52.021 180.396,69.646 151.987,90.774 144.094,90.774 77.076,104.178 54.33,37.32 0,0"
             style="fill:#9d0388;fill-opacity:1;fill-rule:nonzero;stroke:none"
             id="path67" />
        </g>
      </g>
    </g>
  </g>
</svg>
